Coordinates
version=1
nRows=26
nColumns=18
inDegrees=yes

Units are S.I. units (second, meters, Newtons, ...)
If the header above contains a line with 'inDegrees', this indicates whether rotational values are in degrees (yes) or radians (no).

endheader
time	TH_y	TH_x	TH_z	TH_x_trans	TH_y_trans	TH_z_trans	SC_y	SC_z	SC_x	AC_y	AC_z	AC_x	GH_y	GH_z	GH_yy	EL_x	PS_y
     27.02000000	   -149.03751299	     -0.82612272	      0.38396589	     -0.02903712	      1.48358028	      0.03630161	    -16.72292605	      5.79286537	     -7.24801472	     66.66027167	     -9.29820698	    -11.85672248	    -20.06771394	      8.39555076	    -20.18570911	    100.95513796	     98.10339405
     27.03000000	   -149.03761491	     -0.80935213	      0.38443204	     -0.02900051	      1.48364392	      0.03623371	    -16.72065657	      5.78744358	     -7.22754360	     66.66008478	     -9.28318848	    -11.83798667	    -20.06942492	      8.40547350	    -20.19018090	    100.96134136	     98.09909198
     27.04000000	   -149.03963632	     -0.79723843	      0.38710812	     -0.02893752	      1.48370995	      0.03620470	    -16.72008288	      5.78284200	     -7.20820285	     66.66060570	     -9.26959617	    -11.81812746	    -20.07068004	      8.41441303	    -20.19423014	    100.96781076	     98.09469923
     27.05000000	   -149.04131080	     -0.78702257	      0.39181846	     -0.02886257	      1.48378540	      0.03614875	    -16.71894378	      5.77846787	     -7.18588235	     66.66201476	     -9.25381905	    -11.79516791	    -20.07143971	      8.42504126	    -20.19822973	    100.97521058	     98.09011728
     27.06000000	   -149.04195729	     -0.77981726	      0.39738327	     -0.02881788	      1.48381999	      0.03612467	    -16.71719836	      5.77496387	     -7.16408436	     66.66367870	     -9.23808242	    -11.77353621	    -20.07196825	      8.43592426	    -20.20185297	    100.98162820	     98.08613255
     27.07000000	   -149.04288322	     -0.77497842	      0.40380661	     -0.02874303	      1.48387618	      0.03607288	    -16.71560764	      5.77144846	     -7.14016742	     66.66590070	     -9.22089028	    -11.74945643	    -20.07230440	      8.44792432	    -20.20562151	    100.98806981	     98.08206239
     27.08000000	   -149.09616534	     -0.86173396	      0.43483704	     -0.02873543	      1.48374295	      0.03626791	    -16.75441177	      5.75869548	     -7.07313789	     66.69466833	     -9.18746702	    -11.63735291	    -20.06474026	      8.47730471	    -20.21081977	    100.98434459	     98.05466990
     27.09000000	   -149.08508695	     -0.85384902	      0.43951710	     -0.02864527	      1.48377384	      0.03619510	    -16.74253671	      5.76169558	     -7.05302388	     66.70385961	     -9.16948608	    -11.62714394	    -20.05965937	      8.49501992	    -20.20751437	    100.98221920	     98.05180301
     27.10000000	   -149.07923534	     -0.84329853	      0.44346770	     -0.02854009	      1.48385325	      0.03607226	    -16.73629579	      5.76139934	     -7.03109328	     66.70823322	     -9.15165983	    -11.61096470	    -20.05838254	      8.50974925	    -20.20878083	    100.98356569	     98.04915886
     27.11000000	   -149.07547735	     -0.83443111	      0.44770794	     -0.02849924	      1.48385908	      0.03606269	    -16.73290749	      5.76036562	     -7.01234549	     66.71042220	     -9.13696095	    -11.59547005	    -20.05849925	      8.52104843	    -20.21125347	    100.98518064	     98.04706230
     27.12000000	   -149.07098357	     -0.82336091	      0.45367728	     -0.02844275	      1.48388845	      0.03599054	    -16.72930695	      5.75874902	     -6.98996537	     66.71234097	     -9.11979960	    -11.57570879	    -20.05886317	      8.53351222	    -20.21460021	    100.98864437	     98.04499736
     27.13000000	   -149.06827770	     -0.81451088	      0.46135759	     -0.02834911	      1.48392487	      0.03592977	    -16.72874715	      5.75635603	     -6.96768102	     66.71445348	     -9.10408159	    -11.55176457	    -20.05919599	      8.54428526	    -20.21829771	    100.99203000	     98.04277105
     27.14000000	   -149.06473710	     -0.80517503	      0.47148895	     -0.02828162	      1.48391203	      0.03588270	    -16.72867202	      5.75385009	     -6.94478557	     66.71672373	     -9.08833788	    -11.52578914	    -20.05934312	      8.55475451	    -20.22204666	    100.99591879	     98.04069258
     27.15000000	   -149.05998378	     -0.79497135	      0.48285869	     -0.02826210	      1.48390895	      0.03583834	    -16.72806535	      5.75197332	     -6.92321145	     66.71844877	     -9.07328870	    -11.50173333	    -20.05964880	      8.56460068	    -20.22572982	    101.00050668	     98.03901721
     27.16000000	   -149.05432894	     -0.78246527	      0.49711218	     -0.02822825	      1.48389600	      0.03576483	    -16.72829090	      5.74947469	     -6.89912550	     66.71990758	     -9.05687494	    -11.47367515	    -20.06027475	      8.57483543	    -20.23026442	    101.00647942	     98.03725895
     27.17000000	   -149.04908794	     -0.77083215	      0.51349661	     -0.02816381	      1.48388489	      0.03570001	    -16.73096104	      5.74665866	     -6.87637635	     66.72129878	     -9.04229871	    -11.44425063	    -20.06102120	      8.58337632	    -20.23497846	    101.01241455	     98.03552368
     27.18000000	   -149.04251931	     -0.75777069	      0.53210112	     -0.02811344	      1.48385823	      0.03563408	    -16.73425613	      5.74369233	     -6.85245080	     66.72227245	     -9.02686065	    -11.41363773	    -20.06229734	      8.59237450	    -20.24040526	    101.01889203	     98.03374741
     27.19000000	   -148.98005796	     -0.84217095	      0.68231812	     -0.02797229	      1.48366081	      0.03568880	    -16.98525384	      5.69198458	     -6.76248555	     66.85647525	     -9.00427850	    -11.22655923	    -20.03663248	      8.67559489	    -20.23288614	    100.85152417	     98.00105460
     27.20000000	   -148.97072511	     -0.81912867	      0.69348450	     -0.02790359	      1.48363378	      0.03561641	    -16.98408460	      5.69779811	     -6.74136812	     66.85867088	     -8.98610377	    -11.21141010	    -20.03830323	      8.69090339	    -20.23696003	    100.86798868	     97.99863147
     27.21000000	   -148.96192399	     -0.79699513	      0.70402523	     -0.02784652	      1.48364414	      0.03550988	    -16.98387085	      5.69979162	     -6.71861802	     66.85788232	     -8.96737347	    -11.19373761	    -20.04194600	      8.70484039	    -20.24341996	    100.88174507	     97.99640073
     27.22000000	   -148.95357954	     -0.77520512	      0.71629369	     -0.02778338	      1.48364731	      0.03540651	    -16.98722737	      5.70097607	     -6.69461800	     66.85526827	     -8.94807327	    -11.17383478	    -20.04774133	      8.71866596	    -20.25230119	    100.89547489	     97.99380728
     27.23000000	   -148.94479183	     -0.75445200	      0.72963827	     -0.02771186	      1.48365597	      0.03529706	    -16.99315225	      5.70162628	     -6.66916435	     66.85130231	     -8.92771392	    -11.15258619	    -20.05530280	      8.73307805	    -20.26314260	    100.90873635	     97.99090947
     27.24000000	   -148.93530968	     -0.73513198	      0.74356411	     -0.02762893	      1.48366908	      0.03517987	    -17.00114719	      5.70223616	     -6.64228138	     66.84635589	     -8.90598179	    -11.13098928	    -20.06441132	      8.74866889	    -20.27562532	    100.92127639	     97.98776183
     27.25000000	   -148.92511834	     -0.71743865	      0.75731694	     -0.02753534	      1.48368959	      0.03505398	    -17.01112793	      5.70286487	     -6.61390365	     66.84049915	     -8.88270490	    -11.10939637	    -20.07506133	      8.76568350	    -20.28971520	    100.93304557	     97.98435543
     27.26000000	   -148.91420872	     -0.70304501	      0.76996281	     -0.02743500	      1.48371147	      0.03494818	    -17.02501044	      5.70300818	     -6.58498498	     66.83399576	     -8.85897824	    -11.08778972	    -20.08733669	      8.78348212	    -20.30543487	    100.94381160	     97.98053404
     27.27000000	   -148.90229979	     -0.68905399	      0.78182888	     -0.02731920	      1.48374636	      0.03480338	    -17.03886342	      5.70413647	     -6.55360173	     66.82706090	     -8.83234284	    -11.06698560	    -20.10065087	      8.80403063	    -20.32224747	    100.95419660	     97.97660543
